<svg width="18" height="21" viewBox="0 0 18 21" fill="none" xmlns="http://www.w3.org/2000/svg">
<path fill-rule="evenodd" clip-rule="evenodd" d="M5.56402 0.027696C5.23738 0.127596 5.02447 0.306852 4.90947 0.578712C4.85293 0.712359 4.83934 0.948144 4.83934 1.79564V2.84678L2.76642 2.86007L0.693498 2.87337L0.479501 2.99766C0.10189 3.21688 -0.0816598 3.67073 0.0346502 4.09745C0.102252 4.34532 0.400798 4.64596 0.653445 4.72053C0.92494 4.80064 16.4564 4.80064 16.7279 4.72053C16.986 4.64435 17.2669 4.3566 17.3421 4.09136C17.4628 3.66549 17.2831 3.21903 16.9018 2.99766L16.6878 2.87337L14.6149 2.86007L12.542 2.84678V1.79564C12.542 0.948144 12.5284 0.712359 12.4718 0.578712C12.3821 0.366559 12.2484 0.226153 12.0209 0.105217C11.8409 0.00952423 11.8186 0.00880812 8.75862 0.000885957C7.06404 -0.00345557 5.62646 0.00858429 5.56402 0.027696ZM10.639 2.38103V2.85099H8.69066H6.74234V2.38103V1.91107H8.69066H10.639V2.38103ZM1.65805 5.76724C1.56557 5.79248 1.39743 5.89346 1.28447 5.9917C0.916649 6.31154 0.938262 5.9046 0.953259 12.2327L0.966489 17.8225L1.06739 18.1806C1.20205 18.6582 1.51931 19.28 1.80504 19.6261C2.29053 20.2143 3.03003 20.6818 3.81987 20.8999L4.18234 21H8.69066H13.199L13.5615 20.8999C14.3513 20.6818 15.0908 20.2143 15.5763 19.6261C15.8621 19.2798 16.1794 18.6579 16.3137 18.1806L16.4145 17.8225L16.4296 12.2725C16.4405 8.28774 16.4304 6.6573 16.3939 6.49116C16.3584 6.32922 16.2885 6.19839 16.1612 6.05557C15.7123 5.55173 14.9135 5.65508 14.6102 6.25622L14.4903 6.49398V12.0081C14.4903 17.3793 14.488 17.5296 14.4005 17.8094C14.2218 18.3808 13.7641 18.8314 13.1796 19.011C12.9076 19.0947 12.73 19.0981 8.69138 19.0981C4.62697 19.0981 4.47668 19.0952 4.19562 19.0094C3.61715 18.833 3.16106 18.3808 2.97919 17.8034C2.89383 17.5326 2.89102 17.3466 2.89102 12.0051V6.48659L2.76442 6.24722C2.55532 5.85179 2.08935 5.64966 1.65805 5.76724ZM6.43315 7.68866C6.22509 7.75114 5.89913 8.08463 5.83982 8.29575C5.77258 8.53494 5.77258 15.3388 5.83982 15.578C5.90815 15.8211 6.21639 16.1123 6.48349 16.1862C6.91461 16.3054 7.36657 16.1279 7.59068 15.7513L7.7165 15.5399V11.9369V8.33384L7.59068 8.12245C7.36753 7.74738 6.8649 7.55904 6.43315 7.68866ZM10.1804 7.76515C10.004 7.85623 9.90093 7.94959 9.80143 8.10853L9.66482 8.32682V11.9334V15.5399L9.79064 15.7513C10.0147 16.1279 10.4667 16.3054 10.8978 16.1862C11.1663 16.1119 11.4576 15.8345 11.5347 15.5794C11.615 15.3141 11.615 8.5596 11.5347 8.29428C11.4628 8.05648 11.169 7.76618 10.9282 7.69515C10.641 7.61033 10.4448 7.62873 10.1804 7.76515Z" fill="#C4C4C4"/>
</svg>
