<svg width="21" height="21" viewBox="0 0 21 21" fill="none" xmlns="http://www.w3.org/2000/svg">
<path fill-rule="evenodd" clip-rule="evenodd" d="M18.4 0.0407338C18.0998 0.101066 17.7687 0.248404 17.529 0.428291C17.3987 0.526106 17.0152 0.885675 16.6768 1.22737L16.0616 1.84861L17.6101 3.39958L19.1587 4.95055L19.8173 4.29322C20.1795 3.93172 20.5435 3.53451 20.6262 3.41051C21.2122 2.53195 21.1002 1.40023 20.3533 0.652072C19.8308 0.128725 19.0999 -0.0999871 18.4 0.0407338ZM11.6222 6.29706C8.81067 9.11591 8.12037 9.8288 8.09033 9.94454C8.06978 10.0237 7.9173 10.7727 7.75148 11.609C7.55066 12.6221 7.45965 13.1677 7.47886 13.2437C7.51566 13.3892 7.63622 13.51 7.78156 13.5469C7.93466 13.5858 11.0675 12.9624 11.2272 12.8613C11.2905 12.8213 12.8932 11.2332 14.7889 9.33221L18.2355 5.87592L16.6971 4.33465C15.851 3.487 15.1493 2.79342 15.1377 2.79342C15.1261 2.79342 13.5441 4.37004 11.6222 6.29706ZM2.14288 3.55259C1.35451 3.69726 0.623869 4.25776 0.266592 4.99202C-0.0219134 5.58486 -0.00734658 5.1708 0.00549685 12.4104L0.0170272 18.9245L0.108285 19.1917C0.243244 19.5868 0.475616 19.9573 0.777908 20.2592C1.08578 20.5667 1.3861 20.757 1.78766 20.8989L2.06869 20.9983L8.72422 20.9991L15.3798 21L15.6999 20.8987C16.5243 20.6378 17.1724 19.9479 17.4225 19.0648C17.4923 18.8185 17.4972 18.5509 17.4972 14.9759V11.1505L17.3735 10.9501C17.1948 10.6606 16.8901 10.5041 16.561 10.5329C16.2725 10.5581 16.0499 10.692 15.887 10.9385L15.7738 11.1098L15.7533 14.8939C15.7346 18.3532 15.7268 18.6889 15.6631 18.8054C15.5646 18.9854 15.3303 19.1801 15.1488 19.2328C15.0394 19.2645 13.1403 19.274 8.65101 19.2654L2.30788 19.2533L2.14723 19.141C2.05889 19.0792 1.94046 18.9603 1.88404 18.8769L1.78146 18.7251L1.77083 12.3201C1.76045 6.07628 1.76217 5.91127 1.83887 5.76187C1.88216 5.67762 1.97005 5.55877 2.03414 5.49782C2.29626 5.24868 2.11502 5.25932 6.09415 5.25932C8.85405 5.25932 9.77319 5.24712 9.9013 5.20877C10.1351 5.13882 10.3895 4.8746 10.4575 4.63105C10.5669 4.24 10.4041 3.83005 10.0588 3.62677L9.86503 3.51264L6.15151 3.50553C3.23121 3.49998 2.37497 3.51001 2.14288 3.55259Z" fill="#C4C4C4"/>
</svg>
