<svg width="19" height="21" viewBox="0 0 19 21" fill="none" xmlns="http://www.w3.org/2000/svg">
<path fill-rule="evenodd" clip-rule="evenodd" d="M7 12C9.76142 12 12 9.76142 12 7C12 4.23858 9.76142 2 7 2C4.23858 2 2 4.23858 2 7C2 9.76142 4.23858 12 7 12ZM7 14C10.866 14 14 10.866 14 7C14 3.13401 10.866 0 7 0C3.13401 0 0 3.13401 0 7C0 10.866 3.13401 14 7 14Z" fill="#C4C4C4"/>
<path d="M11.7127 14.2538C11.3191 13.7963 11.3709 13.1063 11.8285 12.7127C12.2861 12.3191 12.9761 12.3709 13.3697 12.8285L18.3584 18.628C18.752 19.0856 18.7001 19.7756 18.2425 20.1692C17.7849 20.5628 17.0949 20.511 16.7013 20.0534L11.7127 14.2538Z" fill="#C4C4C4"/>
</svg>
